<?xml version="1.0" encoding="UTF-8"?>
<!DOCTYPE svg PUBLIC "-//W3C//DTD SVG 1.1//EN" "http://www.w3.org/Graphics/SVG/1.1/DTD/svg11.dtd">
<svg xmlns="http://www.w3.org/2000/svg" version="1.1" width="431px" height="427px" style="shape-rendering:geometricPrecision; text-rendering:geometricPrecision; image-rendering:optimizeQuality; fill-rule:evenodd; clip-rule:evenodd" xmlns:xlink="http://www.w3.org/1999/xlink">
<g><path style="opacity:0.94" fill="#000000" d="M 275.5,-0.5 C 279.167,-0.5 282.833,-0.5 286.5,-0.5C 297.64,4.06659 308.64,9.23326 319.5,15C 351.5,31.6667 383.5,48.3333 415.5,65C 422.567,69.9948 427.567,76.4948 430.5,84.5C 430.5,135.5 430.5,186.5 430.5,237.5C 428.234,243.846 424.567,249.346 419.5,254C 384.578,279.044 349.745,304.211 315,329.5C 314.063,341.842 313.063,354.175 312,366.5C 310.47,371.892 308.137,376.892 305,381.5C 289.961,394.93 274.461,407.763 258.5,420C 253.397,423.062 248.064,425.229 242.5,426.5C 238.167,426.5 233.833,426.5 229.5,426.5C 162.004,411.498 94.3373,396.665 26.5,382C 12.0531,376.577 3.05314,366.41 -0.5,351.5C -0.5,343.5 -0.5,335.5 -0.5,327.5C 2.99217,265.342 6.15884,203.008 9,140.5C 9.36469,124.263 16.5314,112.097 30.5,104C 46.7397,95.3806 63.073,87.0473 79.5,79C 85.4422,77.5941 91.4422,77.2608 97.5,78C 110.45,80.659 123.45,82.659 136.5,84C 138.5,80.6667 141.167,78 144.5,76C 183.167,52.6667 221.833,29.3333 260.5,6C 265.367,3.22592 270.367,1.05926 275.5,-0.5 Z M 277.5,16.5 C 280.941,16.3011 284.274,16.8011 287.5,18C 321.5,35.6667 355.5,53.3333 389.5,71C 316.826,74.4105 244.159,77.4105 171.5,80C 206.764,58.5425 242.097,37.3758 277.5,16.5 Z M 373.5,88.5 C 381.84,88.3336 390.173,88.5003 398.5,89C 401.598,90.2679 403.265,92.6012 403.5,96C 375.135,151.896 346.635,207.729 318,263.5C 318.985,226.827 320.485,190.16 322.5,153.5C 321.812,132.994 311.812,119.494 292.5,113C 262.783,107.714 233.117,102.214 203.5,96.5C 260.324,93.8548 316.991,91.1881 373.5,88.5 Z M 86.5,94.5 C 145.588,104.015 204.588,114.181 263.5,125C 201.907,135.433 140.24,145.099 78.5,154C 75.5544,153.194 72.8877,151.861 70.5,150C 58.5,140.667 46.5,131.333 34.5,122C 51.4936,112.005 68.8269,102.839 86.5,94.5 Z M 413.5,114.5 C 414.664,152.331 414.831,190.331 414,228.5C 413.587,231.232 412.92,233.899 412,236.5C 409.833,238.667 407.667,240.833 405.5,243C 375.402,264.132 345.568,285.632 316,307.5C 320.393,296.705 325.393,286.039 331,275.5C 359.037,222.093 386.537,168.426 413.5,114.5 Z M 26.5,138.5 C 40.1041,148.258 53.6041,158.258 67,168.5C 75.2325,206.163 83.3991,243.83 91.5,281.5C 66.8415,303.99 42.0082,326.323 17,348.5C 19.2958,278.455 22.4625,208.455 26.5,138.5 Z M 285.5,138.5 C 292.323,138.487 295.489,141.82 295,148.5C 266.663,210.503 237.829,272.169 208.5,333.5C 175.253,315.627 142.087,297.627 109,279.5C 100.465,243.327 92.6319,206.993 85.5,170.5C 152.426,160.678 219.093,150.011 285.5,138.5 Z M 303.5,170.5 C 304.162,172.304 304.495,174.304 304.5,176.5C 301.695,238.869 298.529,301.202 295,363.5C 293.46,367.419 291.293,370.919 288.5,374C 275.5,384.333 262.5,394.667 249.5,405C 248.552,405.483 247.552,405.649 246.5,405.5C 238.566,385.962 230.9,366.295 223.5,346.5C 225.102,340.627 227.269,334.96 230,329.5C 254.602,276.518 279.102,223.518 303.5,170.5 Z M 101.5,295.5 C 136.473,314.321 171.473,333.154 206.5,352C 213.744,370.657 221.41,389.157 229.5,407.5C 229,407.833 228.5,408.167 228,408.5C 165.892,394.745 103.726,381.245 41.5,368C 37.016,367.129 32.6827,365.796 28.5,364C 28.0426,363.586 27.7093,363.086 27.5,362.5C 52.1867,340.145 76.8533,317.811 101.5,295.5 Z"/></g>
</svg>
