<?xml version="1.0" encoding="UTF-8"?>
<!DOCTYPE svg PUBLIC "-//W3C//DTD SVG 1.1//EN" "http://www.w3.org/Graphics/SVG/1.1/DTD/svg11.dtd">
<svg xmlns="http://www.w3.org/2000/svg" version="1.1" width="512px" height="512px" style="shape-rendering:geometricPrecision; text-rendering:geometricPrecision; image-rendering:optimizeQuality; fill-rule:evenodd; clip-rule:evenodd" xmlns:xlink="http://www.w3.org/1999/xlink">
<g><path style="opacity:0.917" fill="#000000" d="M 321.5,13.5 C 341.512,13.2576 357.678,20.9243 370,36.5C 413.088,97.0097 456.421,157.343 500,217.5C 507.521,231.017 509.521,245.351 506,260.5C 482.274,314.285 458.274,367.952 434,421.5C 425.738,437.223 412.905,447.056 395.5,451C 325.477,467.215 255.31,482.715 185,497.5C 168.003,497 154.003,490.334 143,477.5C 99.5772,418.322 55.9106,359.322 12,300.5C 3.5498,286.52 1.21646,271.52 5,255.5C 30.1203,200.592 55.7869,145.925 82,91.5C 89.4699,78.8507 100.303,70.6841 114.5,67C 183.595,48.9774 252.595,31.144 321.5,13.5 Z M 328.5,26.5 C 330.505,27.0388 332.505,27.7055 334.5,28.5C 330.688,37.557 329.021,46.8904 329.5,56.5C 332.965,59.1217 336.465,59.1217 340,56.5C 342.181,48.7758 344.514,41.1091 347,33.5C 366.765,76.1972 386.932,118.697 407.5,161C 334.677,134.889 262.01,108.056 189.5,80.5C 235.923,62.4749 282.256,44.4749 328.5,26.5 Z M 220.5,53.5 C 204.13,60.4625 187.463,66.9625 170.5,73C 161.5,73.6667 152.5,73.6667 143.5,73C 169.15,66.3377 194.816,59.8377 220.5,53.5 Z M 384.5,80.5 C 415.311,122.109 445.644,164.109 475.5,206.5C 458.458,194.216 441.624,181.549 425,168.5C 411.209,139.254 397.709,109.92 384.5,80.5 Z M 115.5,86.5 C 117.134,85.8389 118.967,85.5056 121,85.5C 132.489,86.2065 143.989,86.7065 155.5,87C 151.333,91.8333 147.167,96.6667 143,101.5C 142.535,100.069 141.701,98.9025 140.5,98C 132.384,93.6074 124.051,89.7741 115.5,86.5 Z M 103.5,87.5 C 102.704,91.6388 104.037,94.8055 107.5,97C 116.833,101.333 126.167,105.667 135.5,110C 101.041,150.795 66.2074,191.295 31,231.5C 51.3937,186.705 72.3937,142.038 94,97.5C 96.6682,93.6659 99.8348,90.3325 103.5,87.5 Z M 178.5,91.5 C 220.807,106.38 262.807,122.046 304.5,138.5C 301.466,149.317 298.132,159.984 294.5,170.5C 288.379,167.94 282.379,165.106 276.5,162C 269.23,159.629 265.73,162.129 266,169.5C 266.465,170.931 267.299,172.097 268.5,173C 274.623,175.815 280.623,178.815 286.5,182C 281.729,185.138 277.229,188.638 273,192.5C 270.465,199.598 272.965,203.098 280.5,203C 285.333,199.5 290.167,196 295,192.5C 295.617,197.253 296.617,201.92 298,206.5C 300.841,208.504 304.007,209.004 307.5,208C 309.045,206.178 309.712,204.011 309.5,201.5C 309.313,197.544 308.646,193.711 307.5,190C 314.218,191.289 320.884,193.123 327.5,195.5C 335.042,193.279 336.375,189.112 331.5,183C 323.948,180.363 316.281,178.196 308.5,176.5C 310.257,164.802 313.257,153.469 317.5,142.5C 346.984,153.382 376.317,164.548 405.5,176C 396.423,182.955 387.256,189.788 378,196.5C 370.133,193.157 361.966,191.324 353.5,191C 350.651,193.559 349.817,196.726 351,200.5C 355.058,203.3 359.558,205.134 364.5,206C 348.755,217.622 332.922,229.122 317,240.5C 316.257,236.028 315.09,231.695 313.5,227.5C 306.889,223.593 303.223,225.426 302.5,233C 303.058,237.682 303.725,242.348 304.5,247C 304.167,248.167 303.833,249.333 303.5,250.5C 274.245,271.711 245.078,293.044 216,314.5C 212.619,296.881 209.452,279.215 206.5,261.5C 209.614,258.718 211.947,255.385 213.5,251.5C 212.362,246.069 209.028,244.069 203.5,245.5C 197.773,208.969 191.773,172.469 185.5,136C 185.667,135.167 185.833,134.333 186,133.5C 191.915,137.06 195.748,135.56 197.5,129C 197.385,127.105 196.718,125.438 195.5,124C 191.255,121.961 187.088,119.794 183,117.5C 180.96,108.926 179.46,100.26 178.5,91.5 Z M 164.5,96.5 C 165.222,96.9175 165.722,97.5842 166,98.5C 166.998,102.473 167.331,106.473 167,110.5C 159.473,108.693 156.473,111.693 158,119.5C 162.032,122.681 166.365,125.348 171,127.5C 177.904,169.755 185.07,211.922 192.5,254C 188.452,257.716 184.118,261.05 179.5,264C 176.277,267.112 175.777,270.612 178,274.5C 181.043,276.908 184.209,277.074 187.5,275C 189.759,273.285 191.926,271.452 194,269.5C 197.536,285.382 200.203,301.382 202,317.5C 184.496,313.082 166.996,308.582 149.5,304C 154.956,300.213 160.123,296.046 165,291.5C 165.81,282.148 161.977,279.648 153.5,284C 146.644,289.691 139.644,295.191 132.5,300.5C 93.9031,290.851 55.2365,281.517 16.5,272.5C 16.3433,271.127 16.51,269.793 17,268.5C 66.3766,211.294 115.543,153.961 164.5,96.5 Z M 412.5,187.5 C 413.491,193.979 413.824,200.646 413.5,207.5C 409.891,207.775 407.891,209.775 407.5,213.5C 407.891,217.225 409.891,219.225 413.5,219.5C 413.303,288.838 412.637,358.171 411.5,427.5C 386.34,414.087 361.34,400.421 336.5,386.5C 339.333,385.001 340.999,382.667 341.5,379.5C 339.559,369.521 337.726,359.521 336,349.5C 333.377,343.011 329.377,342.011 324,346.5C 323.598,347.872 323.098,349.205 322.5,350.5C 324.882,361.126 326.715,371.792 328,382.5C 293.247,363.206 258.414,344.04 223.5,325C 251.323,304.588 279.323,284.422 307.5,264.5C 312.173,269.975 316.339,269.641 320,263.5C 319.934,260.422 320.101,257.422 320.5,254.5C 340.64,240.194 360.64,225.694 380.5,211C 388.49,213.286 392.323,210.453 392,202.5C 399.016,197.637 405.849,192.637 412.5,187.5 Z M 474.5,223.5 C 466.53,223.44 464.03,227.107 467,234.5C 475.628,237.867 484.461,240.701 493.5,243C 494.626,246.744 494.793,250.577 494,254.5C 491.809,261.879 488.809,268.879 485,275.5C 484.727,273.671 483.893,272.171 482.5,271C 479.77,270.272 477.103,270.438 474.5,271.5C 467.812,279.02 461.312,286.687 455,294.5C 451.427,303.58 454.261,307.08 463.5,305C 469.405,298.603 475.071,292.103 480.5,285.5C 462.345,325.812 444.179,366.145 426,406.5C 425.333,387.833 425.333,369.167 426,350.5C 432.237,343.686 438.237,336.686 444,329.5C 447.02,325.726 447.187,321.893 444.5,318C 442.305,316.627 439.971,316.294 437.5,317C 433.311,321.221 429.478,325.721 426,330.5C 426.119,294.838 426.453,259.171 427,223.5C 432.383,225.46 437.883,227.127 443.5,228.5C 447.592,227.991 449.592,225.658 449.5,221.5C 449.594,219.088 448.594,217.255 446.5,216C 439.902,213.851 433.236,212.018 426.5,210.5C 426.169,202.804 426.503,195.138 427.5,187.5C 443.209,199.555 458.876,211.555 474.5,223.5 Z M 120.5,423.5 C 92.4887,386.669 64.822,349.502 37.5,312C 44.2388,312.263 47.0721,309.097 46,302.5C 41.2599,298.215 36.4266,294.048 31.5,290C 88.4588,303.322 145.459,316.822 202.5,330.5C 189.813,379.246 176.813,427.912 163.5,476.5C 159,468.167 154.5,459.833 150,451.5C 149.5,451 149,450.5 148.5,450C 145.428,449.544 142.428,449.544 139.5,450C 136.359,445.359 133.026,440.859 129.5,436.5C 136.186,435.652 138.686,431.986 137,425.5C 132.667,416.833 128.333,408.167 124,399.5C 120.916,395.243 117.249,394.576 113,397.5C 112.077,399.034 111.577,400.701 111.5,402.5C 114.225,409.617 117.225,416.617 120.5,423.5 Z M 214.5,335.5 C 255.943,357.771 297.276,380.271 338.5,403C 334.898,403.85 333.231,406.183 333.5,410C 334.285,415.71 335.285,421.376 336.5,427C 336.167,427.5 335.833,428 335.5,428.5C 327.644,425.104 319.644,422.104 311.5,419.5C 305.811,421.216 304.145,424.883 306.5,430.5C 311.901,433.532 317.568,436.032 323.5,438C 320.36,439.716 317.027,441.049 313.5,442C 309.5,446 309.5,450 313.5,454C 314.833,454.333 316.167,454.667 317.5,455C 309.808,456.771 302.141,458.605 294.5,460.5C 294.898,457.96 294.398,455.293 293,452.5C 291.562,451.282 289.895,450.615 288,450.5C 276.972,453.398 266.139,456.898 255.5,461C 252.872,463.061 252.205,465.561 253.5,468.5C 252.975,469.192 252.308,469.692 251.5,470C 246.777,470.977 242.111,472.144 237.5,473.5C 236.059,470.893 233.893,469.226 231,468.5C 220.833,471.667 210.667,474.833 200.5,478C 198.183,479.32 196.183,480.986 194.5,483C 188.167,485 181.833,485 175.5,483C 184.005,452.983 192.005,422.817 199.5,392.5C 207.997,394.743 216.33,397.576 224.5,401C 231.833,401.997 234.666,398.83 233,391.5C 232.167,390.667 231.333,389.833 230.5,389C 221.294,385.988 212.294,382.488 203.5,378.5C 207.64,364.275 211.306,349.942 214.5,335.5 Z M 346.5,407.5 C 350.407,408.943 353.741,411.11 356.5,414C 354.014,417.156 351.514,420.322 349,423.5C 347.97,418.186 347.137,412.853 346.5,407.5 Z M 322.5,453.5 C 331.342,450.196 340.342,447.03 349.5,444C 355,437.167 360.5,430.333 366,423.5C 367.062,422.101 368.395,421.101 370,420.5C 377.23,424.199 384.397,428.032 391.5,432C 384.833,432.333 378.167,432.667 371.5,433C 367.685,435.218 366.685,438.384 368.5,442.5C 353.452,447.095 338.118,450.761 322.5,453.5 Z"/></g>
<g><path style="opacity:0.89" fill="#000000" d="M 324.5,74.5 C 329.279,74.2215 332.279,76.3882 333.5,81C 330.564,92.245 327.397,103.412 324,114.5C 315.58,118.415 311.913,115.749 313,106.5C 315.511,96.7892 318.178,87.1225 321,77.5C 322.145,76.3636 323.312,75.3636 324.5,74.5 Z"/></g>
<g><path style="opacity:0.878" fill="#000000" d="M 215.5,135.5 C 217.527,135.338 219.527,135.505 221.5,136C 230.5,140.333 239.5,144.667 248.5,149C 251.349,151.559 252.183,154.726 251,158.5C 248.997,160.922 246.497,161.755 243.5,161C 233.5,156.333 223.5,151.667 213.5,147C 210.513,142.439 211.18,138.606 215.5,135.5 Z"/></g>
<g><path style="opacity:0.883" fill="#000000" d="M 251.5,208.5 C 258.825,207.992 261.658,211.326 260,218.5C 251.774,225.693 243.274,232.527 234.5,239C 226.333,240.833 223.167,237.667 225,229.5C 234.02,222.636 242.854,215.636 251.5,208.5 Z"/></g>
<g><path style="opacity:0.888" fill="#000000" d="M 316.5,284.5 C 322.534,283.767 325.701,286.433 326,292.5C 327.565,301.491 329.065,310.491 330.5,319.5C 329.444,327.612 325.611,329.279 319,324.5C 316.261,313.639 314.094,302.639 312.5,291.5C 312.577,288.335 313.91,286.001 316.5,284.5 Z"/></g>
<g><path style="opacity:0.905" fill="#000000" d="M 60.5,317.5 C 63.3198,317.248 65.9865,317.748 68.5,319C 75,324.167 81.5,329.333 88,334.5C 94.7437,329.212 101.577,324.045 108.5,319C 116.689,317.518 119.522,320.685 117,328.5C 112.123,333.046 106.956,337.213 101.5,341C 107.579,343.137 113.579,345.471 119.5,348C 123.169,356.336 120.502,360.003 111.5,359C 108.258,357.361 104.924,356.361 101.5,356C 104.206,361.247 107.04,366.414 110,371.5C 111.895,377.007 110.228,380.674 105,382.5C 102.763,381.944 100.763,380.944 99,379.5C 93.6667,368.833 88.3333,358.167 83,347.5C 74.3781,341.213 66.0447,334.547 58,327.5C 56.8634,323.537 57.6967,320.204 60.5,317.5 Z"/></g>
<g><path style="opacity:0.89" fill="#000000" d="M 139.5,357.5 C 151.93,359.809 163.93,363.643 175.5,369C 179.644,376.85 177.31,380.517 168.5,380C 158.723,376.611 149.056,372.944 139.5,369C 135.673,365.248 135.673,361.415 139.5,357.5 Z"/></g>
<g><path style="opacity:0.885" fill="#000000" d="M 400.5,362.5 C 408.458,363.161 410.625,367.161 407,374.5C 400.688,382.313 394.188,389.98 387.5,397.5C 378.858,400.023 375.691,397.023 378,388.5C 385.291,379.534 392.791,370.868 400.5,362.5 Z"/></g>
<g><path style="opacity:0.888" fill="#000000" d="M 251.5,399.5 C 264.57,401.578 277.07,405.578 289,411.5C 291.332,419.169 288.498,422.669 280.5,422C 270.833,418.333 261.167,414.667 251.5,411C 248.875,407.168 248.875,403.335 251.5,399.5 Z"/></g>
</svg>
